# xmcd
# 
# Track frame offsets:
#     150
#     16566
#     29043
#     52393
# 
# Disc length: 1252
# 
# Revision: 2
# Processed by: cddbd v1.5.2PL0 Copyright (c) Steve Scherf et al.
# Submitted via: fre:ac v1.0.17
# 
DISCID=2f04e204
DTITLE=Stravinsky - P.Rodel - CD14
DYEAR=0
DGENRE=
TTITLE0=Circus Polka composed for a Young Elephant
TTITLE1=Three Movements from Petrushka I Dance russe
TTITLE2=Three Movements from Petrushka II Chez Petrouchka
TTITLE3=Three Movements from Petrushka III La semaine grasse
EXTD=
EXTT0=
EXTT1=
EXTT2=
EXTT3=
PLAYORDER=
